<?xml version="1.0" encoding="utf-8"?>
<!-- Generator: Adobe Illustrator 22.1.0, SVG Export Plug-In . SVG Version: 6.00 Build 0)  -->
<svg version="1.1" baseProfile="basic" xmlns="http://www.w3.org/2000/svg" xmlns:xlink="http://www.w3.org/1999/xlink" x="0px"
	 y="0px" viewBox="0 0 24 24" xml:space="preserve">
<g id="sketches" display="none">
	
		<image display="inline" overflow="visible" width="350" height="464" xlink:href="../../../../../../Downloads/Screen Shot 2020-12-07 at 10.12.52 AM.png"  transform="matrix(0.1338 0 0 0.1338 -11.6121 -7.0531)">
	</image>
</g>
<g id="Layer_1">
	<g>
		<path fill="#FFFFFF" stroke="#102039" stroke-linecap="round" stroke-linejoin="round" stroke-miterlimit="10" d="M9.577,8.86
			c0,0,0.52-1.331,1.712-2.065s2.946-0.442,3.497-0.089c0.452-0.099,0.452-0.099,0.452-0.099l1.309-1.124"/>
		<path fill="none" stroke="#102039" stroke-linecap="round" stroke-linejoin="round" stroke-miterlimit="10" d="M11.58,12.141
			c0.323-0.071,2.828-0.518,3.609-1.737s0.903-2.362,0.903-2.362l1.615-0.962"/>
		
			<circle fill="none" stroke="#102039" stroke-linecap="round" stroke-linejoin="round" stroke-miterlimit="10" cx="17.48" cy="5.086" r="0.871"/>
		
			<circle fill="#FFFFFF" stroke="#102039" stroke-linecap="round" stroke-linejoin="round" stroke-miterlimit="10" cx="18.421" cy="6.801" r="0.871"/>
	</g>
	
		<ellipse transform="matrix(0.9998 -0.0193 0.0193 0.9998 -0.3154 0.2369)" fill="none" stroke="#102039" stroke-linecap="round" stroke-linejoin="round" stroke-miterlimit="10" cx="12.094" cy="16.426" rx="11.398" ry="2.54"/>
	<path fill="#FFFFFF" stroke="#102039" stroke-linecap="round" stroke-linejoin="round" stroke-miterlimit="10" d="M17.078,9.195
		c-3.693-1.899-5.609-2.406-9.052-1.341C4.3,9.007,2.893,12.247,3.857,14.63c0.909,2.249,3.754,2.185,6.261,2.165
		c2.951-0.023,5.35-0.427,5.35-0.427s1.697-0.452,2.533-1.72"/>
	<g>
		<path fill="#FFFFFF" stroke="#102039" stroke-linecap="round" stroke-linejoin="round" stroke-miterlimit="10" d="M13.397,11.225
			c0,0,0.638-1.279,1.89-1.903c1.253-0.624,2.974-0.175,3.491,0.225c0.459-0.058,0.459-0.058,0.459-0.058l1.405-1.001"/>
		<path fill="none" stroke="#102039" stroke-linecap="round" stroke-linejoin="round" stroke-miterlimit="10" d="M15.097,14.672
			c0.328-0.041,2.863-0.261,3.751-1.405s1.112-2.271,1.112-2.271l1.695-0.813"/>
		
			<circle fill="none" stroke="#102039" stroke-linecap="round" stroke-linejoin="round" stroke-miterlimit="10" cx="21.608" cy="8.177" r="0.871"/>
		
			<circle fill="#FFFFFF" stroke="#102039" stroke-linecap="round" stroke-linejoin="round" stroke-miterlimit="10" cx="22.392" cy="9.969" r="0.871"/>
	</g>
</g>
</svg>
