<?xml version="1.0" encoding="utf-8"?>
<!-- Generator: Adobe Illustrator 22.1.0, SVG Export Plug-In . SVG Version: 6.00 Build 0)  -->
<svg version="1.1" baseProfile="basic" xmlns="http://www.w3.org/2000/svg" xmlns:xlink="http://www.w3.org/1999/xlink" x="0px"
	 y="0px" viewBox="0 0 24 24" xml:space="preserve">
<g id="sketches" display="none">
</g>
<g id="Layer_1">
	<path fill="#FFFFFF" stroke="#102039" stroke-miterlimit="10" d="M11.286,12.136c0,4.063-2.353,6.306-5.255,6.306
		s-5.255-2.243-5.255-6.306s2.353-9.458,5.255-9.458S11.286,8.073,11.286,12.136z"/>
	<path fill="#FFFFFF" stroke="#102039" stroke-miterlimit="10" d="M23.126,12.136c0,4.063-2.353,6.306-5.255,6.306
		s-5.255-2.243-5.255-6.306s2.353-9.458,5.255-9.458S23.126,8.073,23.126,12.136z"/>
	<path fill="#FFFFFF" stroke="#102039" stroke-miterlimit="10" d="M17.066,15.562c0,4.063-2.353,6.306-5.255,6.306
		s-5.255-2.243-5.255-6.306s2.353-9.458,5.255-9.458S17.066,11.499,17.066,15.562z"/>
</g>
</svg>
