<?xml version="1.0" encoding="utf-8"?>
<!-- Generator: Adobe Illustrator 22.1.0, SVG Export Plug-In . SVG Version: 6.00 Build 0)  -->
<svg version="1.1" baseProfile="basic" xmlns="http://www.w3.org/2000/svg" xmlns:xlink="http://www.w3.org/1999/xlink" x="0px"
	 y="0px" viewBox="0 0 24 24" xml:space="preserve">
<g id="sketches" display="none">
	
		<image display="inline" overflow="visible" width="3024" height="4032" xlink:href="../../../../../projects/grocery-prices-icons/Image from iOS (19).jpg"  transform="matrix(0.0308 0 0 0.0308 -14.5 -46.6533)">
	</image>
</g>
<g id="Layer_1">
	<path fill="none" stroke="#1E1E1E" stroke-linejoin="round" stroke-miterlimit="10" d="M2.087,20.193
		c0.718,0.718,6.538,1.947,11.148,1.947c0.695,0,2.086-0.649,2.086-2.92c0-0.765-0.487-2.149,0-3.647s2.184-4.902-0.795-6.9
		c-2.797-1.876-6.069,0.326-6.069,0.326S5.286,5.354,2.18,7.956c-1.715,1.437-1.9,4.635-0.881,6.734
		C2.726,17.627,0.704,18.81,2.087,20.193z"/>
	<path fill="none" stroke="#1E1E1E" stroke-linejoin="round" stroke-miterlimit="10" d="M14.204,21.812
		c0.508,0,7.722-5.726,8.159-6.796c0.162-0.396,0.263-0.891,0.263-1.504c0-0.765-0.487-2.149,0-3.647s1.635-4.465-1.153-6.813
		c-2.576-2.17-7.096-0.664-7.096-0.664s-1.513-2.544-4.892-0.14c0,0-6.018,3.546-7.305,5.708"/>
	<circle fill="#1E1E1E" cx="10.727" cy="13.679" r="0.751"/>
	<circle fill="#1E1E1E" cx="9.472" cy="16.452" r="0.575"/>
	<circle fill="#1E1E1E" cx="12.268" cy="18.332" r="0.541"/>
	<path fill="none" stroke="#1E1E1E" stroke-linejoin="round" stroke-miterlimit="10" d="M22.626,9.865c0,0-6.058,4.46-7.305,5.708"
		/>
	<circle fill="#1E1E1E" cx="4.472" cy="9.452" r="0.575"/>
</g>
</svg>
