<?xml version="1.0" encoding="utf-8"?>
<!-- Generator: Adobe Illustrator 22.1.0, SVG Export Plug-In . SVG Version: 6.00 Build 0)  -->
<svg version="1.1" baseProfile="basic" xmlns="http://www.w3.org/2000/svg" xmlns:xlink="http://www.w3.org/1999/xlink" x="0px"
	 y="0px" viewBox="0 0 24 24" xml:space="preserve">
<g id="sketches" display="none">
	
		<image display="inline" overflow="visible" width="3024" height="4032" xlink:href="../../../../../projects/grocery-prices-icons/Image from iOS (19).jpg"  transform="matrix(0.0308 0 0 0.0308 -14.5 -9.6533)">
	</image>
</g>
<g id="Layer_1">
	<polyline fill="none" stroke="#102039" stroke-linecap="round" stroke-linejoin="round" stroke-miterlimit="10" points="
		3.009,10.097 0.5,10.097 7.5,16.792 23.453,16.792 20.886,14.327 	"/>
	<polyline fill="none" stroke="#102039" stroke-linecap="round" stroke-linejoin="round" stroke-miterlimit="10" points="
		22.924,17.063 22.417,18.625 7.333,18.625 1.457,13 0.938,10.522 	"/>
	<path fill="none" stroke="#102039" stroke-linecap="round" stroke-linejoin="round" stroke-miterlimit="10" d="M4.264,11.736
		c0,0,2.659,2.638,3.64,3.221c0.625,0.371,1.734,0.64,3.247,0.64s5.586,0.103,7.026-0.266c1.101-0.282,1.984-0.439,2.08-0.606
		c0.399-0.692,0.707-2.515-1.055-3.94c-1.707-1.381-0.743-2.743-3.92-3.649C13.12,6.52,11.611,7.018,9.95,6.988
		C8.221,6.958,6.598,6.211,4.268,7.66C2.583,8.708,3.155,10.627,4.264,11.736z"/>
	<path fill="none" stroke="#102039" stroke-linecap="round" stroke-linejoin="round" stroke-miterlimit="10" d="M5.857,7.333
		c0,0,2.147,0.799,2.7,2.75c0.493,1.74,1.008,2.123,1.611,2.548c1.255,0.884,0.95,1.968,0.95,2.327"/>
	<path fill="none" stroke="#102039" stroke-linecap="round" stroke-linejoin="round" stroke-miterlimit="10" d="M14.998,14.957
		c0-0.358,0.305-1.442-0.95-2.327c-0.603-0.425-1.117-0.808-1.611-2.548c-0.553-1.951-2.7-2.75-2.7-2.75L8.629,6.913"/>
	<path fill="none" stroke="#102039" stroke-linecap="round" stroke-linejoin="round" stroke-miterlimit="10" d="M18.369,14.957
		c0-0.358,0.305-1.442-0.95-2.327c-0.603-0.425-1.117-0.808-1.611-2.548c-0.553-1.951-2.7-2.75-2.7-2.75l-1.178-0.458"/>
</g>
</svg>
